<svg width="99" height="123" viewBox="0 0 99 123" fill="none" xmlns="http://www.w3.org/2000/svg">
<mask id="mask0" mask-type="alpha" maskUnits="userSpaceOnUse" x="0" y="-7" width="99" height="130">
<path d="M16.1699 124.447C16.1699 118.519 17.4809 113.617 20.1029 109.741C22.8389 105.865 26.7719 101.59 31.9019 96.916C35.6639 93.496 38.3999 90.646 40.1099 88.366C41.9339 85.972 42.8459 83.293 42.8459 80.329C42.8459 76.111 41.1359 72.805 37.7159 70.411C34.4099 67.903 29.9639 66.649 24.3779 66.649C19.0199 66.649 14.2319 67.789 10.0139 70.069C5.90993 72.235 2.43293 75.313 -0.417069 79.303L-21.1081 67.162C-16.3201 59.866 -9.87907 54.223 -1.78507 50.233C6.42293 46.243 16.1129 44.248 27.2849 44.248C40.3949 44.248 50.8829 47.041 58.7489 52.627C66.7289 58.213 70.7189 65.965 70.7189 75.883C70.7189 80.557 69.9209 84.661 68.3249 88.195C66.8429 91.729 64.9619 94.75 62.6819 97.258C60.5159 99.652 57.6659 102.445 54.1319 105.637C49.9139 109.399 46.8359 112.591 44.8979 115.213C42.9599 117.721 41.9909 120.799 41.9909 124.447H16.1699ZM29.1659 167.368C24.4919 167.368 20.5589 165.886 17.3669 162.922C14.2889 159.844 12.7499 156.139 12.7499 151.807C12.7499 147.475 14.2889 143.884 17.3669 141.034C20.4449 138.07 24.3779 136.588 29.1659 136.588C33.9539 136.588 37.8869 138.07 40.9649 141.034C44.0429 143.884 45.5819 147.475 45.5819 151.807C45.5819 156.139 43.9859 159.844 40.7939 162.922C37.7159 165.886 33.8399 167.368 29.1659 167.368Z" transform="translate(72.8687 164.231) rotate(-179.291)" fill="#EEEEEE"/>
<path d="M16.1699 124.447H14.1699V126.447H16.1699V124.447ZM20.1029 109.741L18.469 108.588L18.4575 108.604L18.4464 108.62L20.1029 109.741ZM31.9019 96.916L30.5566 95.4361L30.5549 95.4376L31.9019 96.916ZM40.1099 88.366L38.5191 87.1539L38.5145 87.1599L38.5099 87.166L40.1099 88.366ZM37.7159 70.411L36.5072 72.0044L36.5377 72.0275L36.569 72.0495L37.7159 70.411ZM10.0139 70.069L10.9474 71.8378L10.9562 71.8331L10.965 71.8284L10.0139 70.069ZM-0.417069 79.303L-1.42924 81.028L0.147686 81.9533L1.2104 80.4655L-0.417069 79.303ZM-21.1081 67.162L-22.7802 66.0647L-23.9339 67.8228L-22.1202 68.887L-21.1081 67.162ZM-1.78507 50.233L-2.65947 48.4342L-2.66937 48.4391L-1.78507 50.233ZM58.7489 52.627L57.5909 54.2577L57.602 54.2655L58.7489 52.627ZM68.3249 88.195L66.5022 87.3718L66.491 87.3965L66.4805 87.4215L68.3249 88.195ZM62.6819 97.258L61.202 95.9126L61.1989 95.9162L62.6819 97.258ZM54.1319 105.637L55.4632 107.13L55.4725 107.121L54.1319 105.637ZM44.8979 115.213L46.4805 116.436L46.4936 116.419L46.5063 116.402L44.8979 115.213ZM41.9909 124.447V126.447H43.9909V124.447H41.9909ZM17.3669 162.922L15.9527 164.336L15.9789 164.362L16.006 164.388L17.3669 162.922ZM17.3669 141.034L18.7257 142.502L18.7401 142.488L18.7542 142.475L17.3669 141.034ZM40.9649 141.034L39.5776 142.475L39.5917 142.488L39.6061 142.502L40.9649 141.034ZM40.7939 162.922L42.1812 164.363L42.1822 164.362L40.7939 162.922ZM18.1699 124.447C18.1699 118.812 19.4143 114.328 21.7595 110.862L18.4464 108.62C15.5475 112.906 14.1699 118.226 14.1699 124.447H18.1699ZM21.7369 110.894C24.3606 107.177 28.1816 103.011 33.2489 98.3944L30.5549 95.4376C25.3622 100.169 21.3173 104.553 18.469 108.588L21.7369 110.894ZM33.2473 98.3959C37.0423 94.9458 39.8871 91.9964 41.7099 89.566L38.5099 87.166C36.9127 89.2956 34.2855 92.0462 30.5566 95.4361L33.2473 98.3959ZM41.7008 89.5781C43.7858 86.8415 44.8459 83.7382 44.8459 80.329H40.8459C40.8459 82.8478 40.0821 85.1025 38.5191 87.1539L41.7008 89.5781ZM44.8459 80.329C44.8459 75.4665 42.8241 71.5454 38.8629 68.7725L36.569 72.0495C39.4477 74.0646 40.8459 76.7555 40.8459 80.329H44.8459ZM38.9247 68.8176C35.168 65.9677 30.2507 64.649 24.3779 64.649V68.649C29.6772 68.649 33.6518 69.8383 36.5072 72.0044L38.9247 68.8176ZM24.3779 64.649C18.7275 64.649 13.606 65.8538 9.0629 68.3096L10.965 71.8284C14.8578 69.7242 19.3123 68.649 24.3779 68.649V64.649ZM9.08041 68.3002C4.68548 70.6198 0.975908 73.9119 -2.04454 78.1405L1.2104 80.4655C3.88995 76.7141 7.13438 73.8502 10.9474 71.8378L9.08041 68.3002ZM0.595101 77.578L-20.0959 65.437L-22.1202 68.887L-1.42924 81.028L0.595101 77.578ZM-19.436 68.2593C-14.8506 61.2721 -8.68614 55.8647 -0.900762 52.0269L-2.66937 48.4391C-11.072 52.5813 -17.7895 58.4599 -22.7802 66.0647L-19.436 68.2593ZM-0.910682 52.0317C6.97066 48.2005 16.3492 46.248 27.2849 46.248V42.248C15.8766 42.248 5.8752 44.2855 -2.65945 48.4343L-0.910682 52.0317ZM27.2849 46.248C40.1259 46.248 50.1655 48.9845 57.5909 54.2577L59.9069 50.9963C51.6004 45.0975 40.6639 42.248 27.2849 42.248V46.248ZM57.602 54.2655C65.0358 59.4692 68.7189 66.6035 68.7189 75.883H72.7189C72.7189 65.3265 68.422 56.9568 59.8959 50.9885L57.602 54.2655ZM68.7189 75.883C68.7189 80.3304 67.9599 84.144 66.5022 87.3718L70.1477 89.0182C71.882 85.178 72.7189 80.7836 72.7189 75.883H68.7189ZM66.4805 87.4215C65.0752 90.7727 63.3103 93.5936 61.2021 95.9127L64.1618 98.6033C66.6136 95.9064 68.6106 92.6853 70.1693 88.9685L66.4805 87.4215ZM61.1989 95.9162C59.0936 98.243 56.2965 100.987 52.7914 104.153L55.4725 107.121C59.0353 103.903 61.9383 101.061 64.165 98.5998L61.1989 95.9162ZM52.8007 104.144C48.543 107.942 45.3475 111.24 43.2896 114.024L46.5063 116.402C48.3243 113.942 51.2848 110.856 55.4632 107.13L52.8007 104.144ZM43.3154 113.99C41.0669 116.9 39.9909 120.426 39.9909 124.447H43.9909C43.9909 121.172 44.8529 118.542 46.4805 116.436L43.3154 113.99ZM41.9909 122.447H16.1699V126.447H41.9909V122.447ZM29.1659 165.368C24.9564 165.368 21.5214 164.05 18.7278 161.456L16.006 164.388C19.5965 167.722 24.0274 169.368 29.1659 169.368V165.368ZM18.7811 161.508C16.0762 158.803 14.7499 155.606 14.7499 151.807H10.7499C10.7499 156.672 12.5017 160.885 15.9527 164.336L18.7811 161.508ZM14.7499 151.807C14.7499 148.012 16.0714 144.959 18.7257 142.502L16.0081 139.566C12.5064 142.809 10.7499 146.938 10.7499 151.807H14.7499ZM18.7542 142.475C21.4134 139.914 24.8276 138.588 29.1659 138.588V134.588C23.9283 134.588 19.4764 136.226 15.9796 139.593L18.7542 142.475ZM29.1659 138.588C33.5043 138.588 36.9184 139.914 39.5776 142.475L42.3522 139.593C38.8554 136.226 34.4036 134.588 29.1659 134.588V138.588ZM39.6061 142.502C42.2604 144.959 43.5819 148.012 43.5819 151.807H47.5819C47.5819 146.938 45.8254 142.809 42.3237 139.566L39.6061 142.502ZM43.5819 151.807C43.5819 155.582 42.2172 158.771 39.4057 161.482L42.1822 164.362C45.7547 160.917 47.5819 156.696 47.5819 151.807H43.5819ZM39.4066 161.481C36.7379 164.051 33.3757 165.368 29.1659 165.368V169.368C34.3042 169.368 38.694 167.721 42.1812 164.363L39.4066 161.481Z" transform="translate(72.8687 164.231) rotate(-179.291)" fill="#EEEEEE"/>
</mask>
<g mask="url(#mask0)">
<g style="mix-blend-mode:multiply" transform="matrix(-0.354056 0.935224 -0.953671 -0.300851 84.7402 19.4795)">
<ellipse cx="41.8703" cy="52.2463" rx="41.8703" ry="52.2463" fill="#FF9900" fill-opacity="0.7"/>
</g>
<g style="mix-blend-mode:multiply" transform="matrix(-0.354056 0.935224 -0.953671 -0.300851 100.218 30.6603)">
<ellipse cx="41.8703" cy="52.2463" rx="41.8703" ry="52.2463" fill="#FF0F00" fill-opacity="0.7"/>
</g>
<g style="mix-blend-mode:multiply" transform="matrix(-0.354056 0.935224 -0.953671 -0.300851 117.75 48.2844)">
<path d="M83.7405 52.2463C83.7405 81.1012 64.9946 104.493 41.8703 104.493C18.746 104.493 0 81.1012 0 52.2463C0 23.3915 18.746 0 41.8703 0C64.9946 0 83.7405 23.3915 83.7405 52.2463Z" fill="#FF004D" fill-opacity="0.7"/>
</g>
<g style="mix-blend-mode:multiply" transform="matrix(-0.354056 0.935224 -0.953671 -0.300851 131.475 66.2178)">
<path d="M83.7405 52.2463C83.7405 81.1012 64.9946 104.493 41.8703 104.493C18.746 104.493 0 81.1012 0 52.2463C0 23.3915 18.746 0 41.8703 0C64.9946 0 83.7405 23.3915 83.7405 52.2463Z" fill="#FF00F5" fill-opacity="0.7"/>
</g>
<g style="mix-blend-mode:multiply" transform="matrix(-0.354056 0.935224 -0.953671 -0.300851 123.195 81.743)">
<path d="M83.7405 52.2463C83.7405 81.1012 64.9946 104.493 41.8703 104.493C18.746 104.493 0 81.1012 0 52.2463C0 23.3915 18.746 0 41.8703 0C64.9946 0 83.7405 23.3915 83.7405 52.2463Z" fill="#5200FF" fill-opacity="0.7"/>
</g>
<g style="mix-blend-mode:multiply" transform="matrix(-0.354056 0.935224 -0.953671 -0.300851 102.924 87.442)">
<path d="M83.7405 52.2463C83.7405 81.1012 64.9946 104.493 41.8703 104.493C18.746 104.493 0 81.1012 0 52.2463C0 23.3915 18.746 0 41.8703 0C64.9946 0 83.7405 23.3915 83.7405 52.2463Z" fill="#0029FF" fill-opacity="0.7"/>
</g>
<g style="mix-blend-mode:multiply" transform="matrix(-0.354056 0.935224 -0.953671 -0.300851 75.979 94.6868)">
<path d="M83.7405 52.2463C83.7405 81.1012 64.9946 104.493 41.8703 104.493C18.746 104.493 0 81.1012 0 52.2463C0 23.3915 18.746 0 41.8703 0C64.9946 0 83.7405 23.3915 83.7405 52.2463Z" fill="#00B2FF" fill-opacity="0.7"/>
</g>
<g style="mix-blend-mode:multiply" transform="matrix(-0.354056 0.935224 -0.953671 -0.300851 55.0898 97.7947)">
<path d="M83.7405 52.2463C83.7405 81.1012 64.9946 104.493 41.8703 104.493C18.746 104.493 0 81.1012 0 52.2463C0 23.3915 18.746 0 41.8703 0C64.9946 0 83.7405 23.3915 83.7405 52.2463Z" fill="#00FF0A" fill-opacity="0.7"/>
</g>
</g>
</svg>
