<svg width="57" height="48" viewBox="0 0 57 48" fill="none" xmlns="http://www.w3.org/2000/svg">
<g style="mix-blend-mode:multiply" transform="matrix(1 0 0.00705641 0.999975 0.167236 17.55)">
<ellipse cx="14.1001" cy="14.8962" rx="14.1001" ry="14.8962" fill="#FF9900" fill-opacity="0.7"/>
</g>
<g style="mix-blend-mode:multiply" transform="matrix(1 0 0.00705641 0.999975 2.15552 12.2856)">
<ellipse cx="14.1001" cy="14.8962" rx="14.1001" ry="14.8962" fill="#FF0F00" fill-opacity="0.7"/>
</g>
<g style="mix-blend-mode:multiply" transform="matrix(1 0 0.00705641 0.999975 6 5.82202)">
<path d="M28.2001 14.8962C28.2001 23.1232 21.8873 29.7925 14.1001 29.7925C6.31282 29.7925 0 23.1232 0 14.8962C0 6.66927 6.31282 0 14.1001 0C21.8873 0 28.2001 6.66927 28.2001 14.8962Z" fill="#FF004D" fill-opacity="0.7"/>
</g>
<g style="mix-blend-mode:multiply" transform="matrix(1 0 0.00705641 0.999975 10.3372 0.34314)">
<path d="M28.2001 14.8962C28.2001 23.1232 21.8873 29.7925 14.1001 29.7925C6.31282 29.7925 0 23.1232 0 14.8962C0 6.66927 6.31282 0 14.1001 0C21.8873 0 28.2001 6.66927 28.2001 14.8962Z" fill="#FF00F5" fill-opacity="0.7"/>
</g>
<g style="mix-blend-mode:multiply" transform="matrix(1 0 0.00705641 0.999975 16.176 0.984863)">
<path d="M28.2001 14.8962C28.2001 23.1232 21.8873 29.7925 14.1001 29.7925C6.31282 29.7925 0 23.1232 0 14.8962C0 6.66927 6.31282 0 14.1001 0C21.8873 0 28.2001 6.66927 28.2001 14.8962Z" fill="#5200FF" fill-opacity="0.7"/>
</g>
<g style="mix-blend-mode:multiply" transform="matrix(1 0 0.00705641 0.999975 20.1001 5.8219)">
<path d="M28.2001 14.8962C28.2001 23.1232 21.8873 29.7925 14.1001 29.7925C6.31282 29.7925 0 23.1232 0 14.8962C0 6.66927 6.31282 0 14.1001 0C21.8873 0 28.2001 6.66927 28.2001 14.8962Z" fill="#0029FF" fill-opacity="0.7"/>
</g>
<g style="mix-blend-mode:multiply" transform="matrix(1 0 0.00705641 0.999975 25.2102 12.2856)">
<path d="M28.2001 14.8962C28.2001 23.1232 21.8873 29.7925 14.1001 29.7925C6.31282 29.7925 0 23.1232 0 14.8962C0 6.66927 6.31282 0 14.1001 0C21.8873 0 28.2001 6.66927 28.2001 14.8962Z" fill="#00B2FF" fill-opacity="0.7"/>
</g>
<g style="mix-blend-mode:multiply" transform="matrix(1 0 0.00705641 0.999975 28.3669 17.5503)">
<path d="M28.2001 14.8962C28.2001 23.1232 21.8873 29.7925 14.1001 29.7925C6.31282 29.7925 0 23.1232 0 14.8962C0 6.66927 6.31282 0 14.1001 0C21.8873 0 28.2001 6.66927 28.2001 14.8962Z" fill="#00FF0A" fill-opacity="0.7"/>
</g>
</svg>
